<svg xmlns="http://www.w3.org/2000/svg" viewBox="0 0 1200 630" width="1200" height="630" role="img" aria-label="Toolsx — Personal Tool Gallery">
  <defs>
    <linearGradient id="surface" x1="0" x2="1" y1="0" y2="1">
      <stop offset="0" stop-color="#050806"/>
      <stop offset=".58" stop-color="#07100b"/>
      <stop offset="1" stop-color="#0b130e"/>
    </linearGradient>
    <radialGradient id="greenGlow" cx=".16" cy=".18" r=".55">
      <stop offset="0" stop-color="#4ade80" stop-opacity=".32"/>
      <stop offset=".44" stop-color="#4ade80" stop-opacity=".09"/>
      <stop offset="1" stop-color="#4ade80" stop-opacity="0"/>
    </radialGradient>
    <filter id="softShadow" x="-20%" y="-20%" width="140%" height="140%">
      <feDropShadow dx="0" dy="10" stdDeviation="10" flood-color="#000000" flood-opacity=".28"/>
    </filter>
  </defs>

  <rect width="1200" height="630" fill="url(#surface)"/>
  <rect width="1200" height="630" fill="url(#greenGlow)"/>

  <g opacity=".12" stroke="#4ade80" stroke-width="1">
    <path d="M80 96H1120"/>
    <path d="M80 532H1120"/>
    <path d="M92 80V550"/>
    <path d="M1108 80V550"/>
  </g>

  <g transform="translate(96 88)">
    <path d="M42 0 78.37 21v42L42 84 5.63 63V21L42 0Z" fill="#09120d" stroke="#4ade80" stroke-width="6" stroke-linejoin="round"/>
    <path d="M42 18 62.78 30v24L42 66 21.22 54V30L42 18Z" fill="#111a14" stroke="#a3ffbf" stroke-width="3" stroke-linejoin="round"/>
    <circle cx="42" cy="42" r="7" fill="#f59e0b"/>
  </g>

  <text x="208" y="134" fill="#ecfdf0" font-family="DejaVu Sans Mono, monospace" font-size="54" font-weight="700">Toolsx</text>
  <text x="96" y="244" fill="#ecfdf0" font-family="DejaVu Sans, Arial, sans-serif" font-size="72" font-weight="700">Personal tool gallery</text>
  <text x="100" y="304" fill="#9bb6a2" font-family="DejaVu Sans, Arial, sans-serif" font-size="31" font-weight="500">Drop a file. Ship a tool. Keep every mini-tool one click away.</text>

  <g transform="translate(100 392)" filter="url(#softShadow)">
    <rect x="0" y="0" width="278" height="118" rx="14" fill="#101812" stroke="#26372c"/>
    <rect x="24" y="24" width="54" height="24" rx="5" fill="#193520"/>
    <text x="39" y="41" fill="#4ade80" font-family="DejaVu Sans Mono, monospace" font-size="13" font-weight="700">TSX</text>
    <text x="24" y="78" fill="#ecfdf0" font-family="DejaVu Sans, Arial, sans-serif" font-size="22" font-weight="700">JSON Formatter</text>
    <path d="M235 66h22m-8-8 8 8-8 8" stroke="#4ade80" stroke-width="2" fill="none" stroke-linecap="round" stroke-linejoin="round"/>
  </g>

  <g transform="translate(410 392)" filter="url(#softShadow)">
    <rect x="0" y="0" width="278" height="118" rx="14" fill="#101812" stroke="#26372c"/>
    <rect x="24" y="24" width="64" height="24" rx="5" fill="#38240b"/>
    <text x="39" y="41" fill="#f59e0b" font-family="DejaVu Sans Mono, monospace" font-size="13" font-weight="700">HTML</text>
    <text x="24" y="78" fill="#ecfdf0" font-family="DejaVu Sans, Arial, sans-serif" font-size="22" font-weight="700">Color Picker</text>
    <path d="M235 66h22m-8-8 8 8-8 8" stroke="#f59e0b" stroke-width="2" fill="none" stroke-linecap="round" stroke-linejoin="round"/>
  </g>

  <g transform="translate(720 392)" filter="url(#softShadow)">
    <rect x="0" y="0" width="278" height="118" rx="14" fill="#101812" stroke="#26372c"/>
    <rect x="24" y="24" width="54" height="24" rx="5" fill="#193520"/>
    <text x="39" y="41" fill="#4ade80" font-family="DejaVu Sans Mono, monospace" font-size="13" font-weight="700">TSX</text>
    <text x="24" y="78" fill="#ecfdf0" font-family="DejaVu Sans, Arial, sans-serif" font-size="22" font-weight="700">Markdown Preview</text>
    <path d="M235 66h22m-8-8 8 8-8 8" stroke="#4ade80" stroke-width="2" fill="none" stroke-linecap="round" stroke-linejoin="round"/>
  </g>

  <text x="100" y="568" fill="#6d8473" font-family="DejaVu Sans Mono, monospace" font-size="20">focused / electric / minimal</text>
</svg>
